# xmcd
# 
# Track frame offsets:
#     150
#     20485
#     38015
#     58612
#     73057
#     91985
#     115252
#     133462
#     158747
#     188707
# 
# Disc length: 2945
# 
# Revision: 7
# Processed by: cddbd v1.5.2PL0 Copyright (c) Steve Scherf et al.
# Submitted via: BonkEnc v1.0.8
# 
DISCID=870b7f0a
DTITLE=Alice Cooper - Collections
DYEAR=2005
DGENRE=Rock
TTITLE0=Poison
TTITLE1=Lost In America
TTITLE2=Hey Stoopid
TTITLE3=Why Trust You
TTITLE4=Love's A Loaded Gun
TTITLE5=You're My Temptation
TTITLE6=Trash
TTITLE7=Stolen Prayer
TTITLE8=Sideshow
TTITLE9=Might As Well Be On Mars
EXTD=YEAR: 2005 ID3G: 17
EXTT0=
EXTT1=
EXTT2=
EXTT3=
EXTT4=
EXTT5=
EXTT6=
EXTT7=
EXTT8=
EXTT9=
PLAYORDER=
